<svg xmlns="http://www.w3.org/2000/svg" viewBox="0 0 22 22"><path d="M21.888 18.918a3 3 0 0 1-3.27 2.998l-.018-.002a20.8 20.8 0 0 1-9.062-3.222 20.5 20.5 0 0 1-6.302-6.302A20.8 20.8 0 0 1 .014 3.286l-.002-.017A3 3 0 0 1 2.997 0h2.997a3 3 0 0 1 2.994 2.58l.001.009a12 12 0 0 0 .646 2.59 3 3 0 0 1-.676 3.164l-.004.004-.717.717a15 15 0 0 0 4.586 4.586l.717-.717.004-.004a3 3 0 0 1 3.164-.675 11.8 11.8 0 0 0 2.59.645 1 1 0 0 1-.261 1.982 13.8 13.8 0 0 1-3.03-.754h-.002a1 1 0 0 0-1.053.222l-1.268 1.268a1 1 0 0 1-1.201.162 17 17 0 0 1-6.375-6.375 1 1 0 0 1 .162-1.201l1.268-1.268a1 1 0 0 0 .223-1.053l-.001-.003a14 14 0 0 1-.754-3.023 1 1 0 0 0-1-.856H2.999a1 1 0 0 0-.995 1.083 18.8 18.8 0 0 0 2.914 8.223l.005.008a18.5 18.5 0 0 0 5.692 5.692l.008.005a18.8 18.8 0 0 0 8.184 2.914 1 1 0 0 0 1.082-1v-.005" fill-rule="evenodd"/></svg>