<svg xmlns="http://www.w3.org/2000/svg" viewBox="0 0 47 47"><path fill-rule="evenodd" d="M10.8 4.42a114.8 114.8 0 0 1 25.284 0 7.175 7.175 0 0 1 6.33 6.247 110.3 110.3 0 0 1 0 25.622 7.174 7.174 0 0 1-6.33 6.246 114.7 114.7 0 0 1-25.284 0 7.175 7.175 0 0 1-6.331-6.246 110.3 110.3 0 0 1 0-25.622 7.175 7.175 0 0 1 6.33-6.246ZM36.496.722a118.5 118.5 0 0 0-26.108 0c-4.996.557-9.03 4.492-9.616 9.512a114 114 0 0 0 0 26.49c.586 5.02 4.618 8.956 9.616 9.514 8.676.961 17.432.961 26.108 0 4.995-.558 9.03-4.494 9.616-9.514 1.029-8.8 1.029-17.69 0-26.49-.586-5.02-4.618-8.956-9.616-9.514M16.925 32.168h-3.332V14.006c1.201-.218 2.867-.382 5.134-.382 2.458 0 4.26.519 5.435 1.502 1.092.901 1.802 2.349 1.802 4.07 0 1.747-.546 3.195-1.584 4.178-1.34 1.338-3.44 1.966-5.817 1.966-.628 0-1.201-.027-1.638-.11zM18.86 16.19c-.926 0-1.581.082-1.936.164v6.227c.41.109.956.136 1.638.136 2.513 0 4.042-1.229 4.042-3.386 0-2.048-1.42-3.14-3.741-3.14m11.795 15.976H27.3v-9.013c0-1.802-.025-3.086-.11-4.287h2.923l.11 2.54h.108c.656-1.885 2.213-2.84 3.633-2.84.327 0 .521.026.794.081v3.168a4.7 4.7 0 0 0-.986-.11c-1.61 0-2.703 1.039-3.004 2.54a6 6 0 0 0-.109 1.038z" clip-rule="evenodd"/></svg>