<svg width="60" height="60" viewBox="0 0 60 60" fill="none" xmlns="http://www.w3.org/2000/svg">
<path fill-rule="evenodd" clip-rule="evenodd" d="M17.1507 10.7353C25.553 9.80398 34.0325 9.80398 42.4348 10.7353C44.0388 10.9129 45.5361 11.6259 46.6848 12.7594C47.8336 13.8928 48.5667 15.3804 48.7658 16.9819C49.7612 25.4934 49.7612 34.092 48.7658 42.6036C48.5667 44.2051 47.8336 45.6927 46.6848 46.8261C45.5361 47.9595 44.0388 48.6726 42.4348 48.8502C34.0325 49.7816 25.553 49.7816 17.1507 48.8502C15.5467 48.6726 14.0494 47.9595 12.9006 46.8261C11.7519 45.6927 11.0188 44.2051 10.8197 42.6036C9.82427 34.092 9.82427 25.4934 10.8197 16.9819C11.0188 15.3804 11.7519 13.8928 12.9006 12.7594C14.0494 11.6259 15.5467 10.9129 17.1507 10.7353ZM42.8469 7.03605C34.1707 6.07423 25.4148 6.07423 16.7386 7.03605C11.7433 7.59219 7.70887 11.5273 7.12294 16.5474C6.09358 25.3476 6.09358 34.2379 7.12294 43.0381C7.70887 48.0582 11.7408 51.9933 16.7386 52.5519C25.4148 53.5127 34.1707 53.5127 42.8469 52.5519C47.8422 51.9933 51.8766 48.0582 52.4625 43.0381C53.4918 34.2379 53.4918 25.3476 52.4625 16.5474C51.8766 11.5273 47.8447 7.59219 42.8469 7.03357M23.2756 38.4823H19.9438V20.3211C21.1454 20.1027 22.8113 19.9388 25.078 19.9388C27.5359 19.9388 29.3384 20.4577 30.5127 21.4408C31.6051 22.3421 32.3152 23.7895 32.3152 25.51C32.3152 27.2579 31.769 28.7053 30.7312 29.6885C29.3905 31.0267 27.2901 31.6548 24.9142 31.6548C24.286 31.6548 23.7125 31.6275 23.2756 31.5455V38.4823ZM25.2121 22.5059C24.286 22.5059 23.6306 22.5879 23.2756 22.6698V28.8965C23.6852 29.0057 24.2314 29.033 24.9142 29.033C27.4267 29.033 28.9561 27.8041 28.9561 25.6466C28.9561 23.5983 27.5359 22.5059 25.2146 22.5059M37.01 38.4823H33.6509V29.47C33.6509 27.6675 33.6261 26.384 33.5417 25.1823H36.4638L36.5731 27.7221H36.6823C37.3377 25.8378 38.8944 24.8819 40.3145 24.8819C40.6423 24.8819 40.8359 24.9092 41.109 24.9638V28.1318C40.7853 28.0605 40.4549 28.0239 40.1234 28.0226C38.5121 28.0226 37.4197 29.0603 37.1193 30.5624C37.0516 30.9043 37.015 31.2516 37.01 31.6002V38.4823Z" fill="#959595"/>
</svg>
