<svg width="61" height="61" viewBox="0 0 61 61" fill="none" xmlns="http://www.w3.org/2000/svg">
<path d="M52.6621 17.554V42.6312C52.6621 45.2915 51.6052 47.8429 49.7241 49.7241C47.8429 51.6052 45.2915 52.662 42.6312 52.662H17.554C14.8937 52.662 12.3423 51.6052 10.4611 49.7241C8.57998 47.8429 7.52316 45.2915 7.52316 42.6312V17.554C7.52316 14.8937 8.57998 12.3423 10.4611 10.4611C12.3423 8.57997 14.8937 7.52315 17.554 7.52315H42.6312C45.2915 7.52315 47.8429 8.57997 49.7241 10.4611C51.6052 12.3423 52.6621 14.8937 52.6621 17.554Z" stroke="#959595" stroke-width="4" stroke-linecap="round" stroke-linejoin="round"/>
<path d="M17.554 40.1235V30.0926M17.554 30.0926V20.0617H22.5694C23.8996 20.0617 25.1753 20.5901 26.1159 21.5307C27.0565 22.4713 27.5849 23.747 27.5849 25.0772C27.5849 26.4073 27.0565 27.683 26.1159 28.6236C25.1753 29.5642 23.8996 30.0926 22.5694 30.0926H17.554ZM42.6312 27.5849C41.8638 26.0476 40.2915 25.0772 38.5737 25.0772H37.6157C36.6181 25.0772 35.6613 25.4735 34.9559 26.1789C34.2505 26.8843 33.8542 27.8411 33.8542 28.8387C33.8542 29.8364 34.2505 30.7931 34.9559 31.4986C35.6613 32.204 36.6181 32.6003 37.6157 32.6003H38.8696C39.8672 32.6003 40.824 32.9966 41.5294 33.702C42.2349 34.4075 42.6312 35.3643 42.6312 36.3619C42.6312 37.3595 42.2349 38.3163 41.5294 39.0217C40.824 39.7272 39.8672 40.1235 38.8696 40.1235H37.9117C37.0692 40.1234 36.2434 39.8888 35.5267 39.4459C34.8101 39.003 34.2309 38.3693 33.8542 37.6157" stroke="#959595" stroke-width="4" stroke-linecap="round" stroke-linejoin="round"/>
</svg>
