<svg xmlns="http://www.w3.org/2000/svg" viewBox="0 0 50 50"><path d="M49.139 12.03v25.078a12.03 12.03 0 0 1-12.031 12.03H12.03A12.03 12.03 0 0 1 0 37.109V12.031A12.03 12.03 0 0 1 12.03 0h25.078a12.03 12.03 0 0 1 12.03 11.96zm-4 .063v25.015a8.03 8.03 0 0 1-8.03 8.03H12.03A8.03 8.03 0 0 1 4 37.108V12.032A8.03 8.03 0 0 1 12.03 4h25.078a8.03 8.03 0 0 1 8.03 8.03z" fill-rule="evenodd"/><path d="M38.897 21.168a6.54 6.54 0 0 0-5.846-3.614h-.991a5.762 5.762 0 0 0 0 11.523h1.319a1.762 1.762 0 1 1 0 3.523h-.99a2.54 2.54 0 0 1-2.27-1.402 2 2 0 0 0-3.577 1.79A6.54 6.54 0 0 0 32.39 36.6h.942a5.762 5.762 0 1 0 0-11.523h-1.219a1.762 1.762 0 0 1 0-3.523h.939a2.54 2.54 0 0 1 2.268 1.402 2 2 0 0 0 3.578-1.788M10.03 34.6V14.538a2 2 0 0 1 2-2h5.016a7.015 7.015 0 0 1 0 14.03H14.03V34.6a2 2 0 0 1-4 0m4-12.032v-6.03h3.016a3.015 3.015 0 0 1 0 6.03z" fill-rule="evenodd"/></svg>