<svg width="61" height="61" viewBox="0 0 61 61" fill="none" xmlns="http://www.w3.org/2000/svg">
<path d="M17.554 20.0617L27.5849 40.1235M17.554 40.1235L27.5849 20.0617M52.662 17.554V42.6312C52.662 45.2915 51.6052 47.8429 49.724 49.7241C47.8429 51.6052 45.2915 52.662 42.6312 52.662H17.554C14.8936 52.662 12.3423 51.6052 10.4611 49.7241C8.57995 47.8429 7.52313 45.2915 7.52313 42.6312V17.554C7.52313 14.8937 8.57995 12.3423 10.4611 10.4611C12.3423 8.57997 14.8936 7.52315 17.554 7.52315H42.6312C45.2915 7.52315 47.8429 8.57997 49.724 10.4611C51.6052 12.3423 52.662 14.8937 52.662 17.554Z" stroke="#959595" stroke-width="4" stroke-linecap="round" stroke-linejoin="round"/>
<path d="M42.6311 30.0926V38.6188C42.6311 38.8164 42.5922 39.0121 42.5166 39.1946C42.441 39.3772 42.3302 39.543 42.1905 39.6828C42.0507 39.8225 41.8849 39.9333 41.7023 40.0089C41.5198 40.0845 41.3241 40.1235 41.1265 40.1235H37.6157C36.2855 40.1235 35.0098 39.5951 34.0693 38.6545C33.1287 37.7139 32.6003 36.4382 32.6003 35.108C32.6003 33.7779 33.1287 32.5022 34.0693 31.5616C35.0098 30.621 36.2855 30.0926 37.6157 30.0926H42.6311ZM42.6311 30.0926V22.5694" stroke="#959595" stroke-width="4" stroke-linecap="round" stroke-linejoin="round"/>
</svg>
