<svg xmlns="http://www.w3.org/2000/svg" viewBox="0 0 50 50"><path d="M49.14 12.03v25.077a12.03 12.03 0 0 1-12.031 12.03H12.03A12.03 12.03 0 0 1 0 37.109V12.031A12.03 12.03 0 0 1 12.03 0h25.078a12.03 12.03 0 0 1 12.03 11.932zm-4 .09v24.987a8.03 8.03 0 0 1-8.03 8.03H12.03A8.03 8.03 0 0 1 4 37.109V12.031A8.03 8.03 0 0 1 12.03 4h25.078a8.03 8.03 0 0 1 8.03 8.03zm-31.321 1.524 3.227 6.453 3.225-6.451a2 2 0 1 1 3.578 1.788l-4.567 9.135 4.57 9.136a2 2 0 0 1-3.578 1.79l-3.227-6.454-3.226 6.453a2 2 0 0 1-3.578-1.788l4.567-9.137-4.569-9.135a2 2 0 0 1 3.578-1.79" fill-rule="evenodd"/><path d="M39.108 33.096v-16.05a2 2 0 0 0-4 0v5.524h-3.015a7.015 7.015 0 0 0 0 14.03h3.51a3.505 3.505 0 0 0 3.505-3.503zm-4-6.526v6.03h-3.015a3.015 3.015 0 0 1 0-6.03z" fill-rule="evenodd"/></svg>