<svg xmlns="http://www.w3.org/2000/svg" viewBox="0 0 50 50"><path d="M49.139 12.031v25.077a12.03 12.03 0 0 1-12.031 12.03H12.03A12.03 12.03 0 0 1 0 37.109V12.031A12.03 12.03 0 0 1 12.03 0h25.078a12.03 12.03 0 0 1 12.03 11.962zm-4 .062v25.015a8.03 8.03 0 0 1-8.03 8.03H12.03A8.03 8.03 0 0 1 4 37.108V12.032A8.03 8.03 0 0 1 12.03 4h25.078a8.03 8.03 0 0 1 8.03 8.03zM36.6 24.57V34.6a2 2 0 0 1-4 0V24.57a2 2 0 0 1 4 0m0-7.524v.025a2 2 0 0 1-4 0v-.025a2 2 0 0 1 4 0" fill-rule="evenodd"/><path d="m10.157 33.898 2.822-7.523 4.702-12.538a2 2 0 0 1 3.746 0l4.702 12.538 2.82 7.523a2 2 0 0 1-3.745 1.404l-2.334-6.225h-6.632l-2.335 6.225a2 2 0 1 1-3.746-1.404m7.581-8.821 1.816-4.842 1.816 4.842z"/></svg>