<svg xmlns="http://www.w3.org/2000/svg" viewBox="0 0 22 22"><path d="M18.76 18.796A10.97 10.97 0 0 0 22 11a10.97 10.97 0 0 0-3.24-7.795A10.97 10.97 0 0 0 11 0a10.97 10.97 0 0 0-7.975 3.424A10.97 10.97 0 0 0 0 11.001 11 11 0 0 0 11 22a10.97 10.97 0 0 0 7.76-3.204m-1.41-1.419A8.97 8.97 0 0 0 20 11.001V11a8.97 8.97 0 0 0-2.65-6.375l-.002-.002A8.97 8.97 0 0 0 11.001 2H11a8.97 8.97 0 0 0-6.523 2.8l-.002.003A8.97 8.97 0 0 0 2 10.999V11a9 9 0 0 0 9 9h.001a8.97 8.97 0 0 0 6.348-2.62z" fill-rule="evenodd"/><path d="M20.426 11.984a14 14 0 0 0 .567.016 1 1 0 0 0 .014-2 12 12 0 0 1-.485-.013h-.003l-.666-.032a41 41 0 0 0-1.26-.043h-.001l-.474-.005a20 20 0 0 0-3.444.275l-.006.001a15 15 0 0 0-1.477.334 13 13 0 0 0-1.677.598l-.004.001a23.2 23.2 0 0 0-4.126 2.352 24 24 0 0 0-.956.72 21 21 0 0 0-2.14 1.936 15 15 0 0 0-1.154 1.346 1 1 0 0 0 1.596 1.206 13 13 0 0 1 .995-1.16v-.002a19 19 0 0 1 1.942-1.757l.002-.002a22 22 0 0 1 .876-.658l.001-.001a21.2 21.2 0 0 1 3.77-2.15 11 11 0 0 1 1.414-.503 13 13 0 0 1 1.277-.289 18 18 0 0 1 3.1-.247h.008l.442.004a39 39 0 0 1 1.197.041z"/><path d="M9.12 2.172A27 27 0 0 0 7.93.995a1 1 0 0 0-1.36 1.464 25 25 0 0 1 1.1 1.09l.002.002a31 31 0 0 1 1.765 2.02l.013.016a19.2 19.2 0 0 1 3.067 5.134l.038.106a27 27 0 0 1 .665 2.252 53 53 0 0 1 .854 4.215l.001.006.029.174.031.19.03.185a122 122 0 0 0 .302 1.85l.001.006a10 10 0 0 0 .086.43 1 1 0 0 0 1.952-.433 8 8 0 0 1-.068-.344 120 120 0 0 1-.297-1.819l-.001-.006-.031-.19-.032-.194-.029-.175a55 55 0 0 0-.885-4.373l-.001-.004a29 29 0 0 0-.716-2.422l-.002-.004-.052-.147-.012-.032a21.2 21.2 0 0 0-3.388-5.678A33 33 0 0 0 9.12 2.172"/><path d="M1.018 10.748a34 34 0 0 0 .96.044 39 39 0 0 0 1.232.02 36 36 0 0 0 2.86-.112h.003a28 28 0 0 0 1.206-.124 16.3 16.3 0 0 0 4.255-1.046l.036-.015a21.2 21.2 0 0 0 3.717-2.108 33 33 0 0 0 2.115-1.611 62 62 0 0 0 1.074-.91l.234-.2a1 1 0 0 0-1.292-1.526l-.249.212-.002.002a60 60 0 0 1-1.04.88 31 31 0 0 1-1.99 1.516l-.005.004a19.2 19.2 0 0 1-3.35 1.903 14.3 14.3 0 0 1-3.724.911l-.018.002a26 26 0 0 1-1.128.116 34 34 0 0 1-2.7.105h-.001a37 37 0 0 1-1.171-.018 32 32 0 0 1-.904-.041 1 1 0 0 0-.118 1.996m-.192 4.44a11.04 11.04 0 0 0 4.948 5.493 1 1 0 0 0 .952-1.758 9.04 9.04 0 0 1-4.052-4.498 1 1 0 0 0-1.848.764"/><path d="M3.025 3.424A10.97 10.97 0 0 0 0 11.001 1 1 0 0 0 2 11a8.97 8.97 0 0 1 2.474-6.196l.002-.002A8.97 8.97 0 0 1 10.999 2 1 1 0 0 0 11 0a10.97 10.97 0 0 0-7.976 3.424m15.735-.219a11 11 0 0 0-3.359-2.29 1 1 0 0 0-.802 1.833 9 9 0 0 1 2.75 1.874l.001.002A8.97 8.97 0 0 1 20 10.998v.003a9 9 0 0 1-.567 3.15 1 1 0 0 0 1.874.699A11 11 0 0 0 22 11a10.97 10.97 0 0 0-3.24-7.795M11 22a10.97 10.97 0 0 0 7.762-3.205 1 1 0 0 0-1.412-1.416A8.97 8.97 0 0 1 11 20 1 1 0 0 0 11 22"/></svg>