<svg xmlns="http://www.w3.org/2000/svg" viewBox="0 0 20 19"><path d="M9.25 10.975V.75a.75.75 0 0 1 1.5 0v10.225l1.635-1.641a.75.75 0 0 1 1.062 1.058l-2.916 2.928a.75.75 0 0 1-1.062 0l-2.916-2.928a.75.75 0 1 1 1.062-1.058z"/><path d="M14.633 4.733h.933A4.434 4.434 0 0 1 20 9.168v4.884a4.425 4.425 0 0 1-4.425 4.425H4.435A4.435 4.435 0 0 1 0 14.042V9.157a4.425 4.425 0 0 1 4.425-4.424h.942a.75.75 0 0 1 0 1.5h-.942A2.925 2.925 0 0 0 1.5 9.157v4.885a2.935 2.935 0 0 0 2.935 2.935h11.14a2.925 2.925 0 0 0 2.925-2.925V9.168a2.934 2.934 0 0 0-2.934-2.935h-.933a.75.75 0 0 1 0-1.5"/></svg>