<svg width="61" height="61" viewBox="0 0 61 61" fill="none" xmlns="http://www.w3.org/2000/svg">
<path d="M40.1235 30.0926V40.1235M40.1235 22.5694V22.5945M52.662 17.554V42.6312C52.662 45.2915 51.6052 47.8429 49.7241 49.7241C47.8429 51.6052 45.2915 52.662 42.6312 52.662H17.554C14.8937 52.662 12.3423 51.6052 10.4611 49.7241C8.57997 47.8429 7.52315 45.2915 7.52315 42.6312V17.554C7.52315 14.8937 8.57997 12.3423 10.4611 10.4611C12.3423 8.57997 14.8937 7.52315 17.554 7.52315H42.6312C45.2915 7.52315 47.8429 8.57997 49.7241 10.4611C51.6052 12.3423 52.662 14.8937 52.662 17.554Z" stroke="#959595" stroke-width="4" stroke-linecap="round" stroke-linejoin="round"/>
<path d="M17.554 40.1235L20.3752 32.6003M20.3752 32.6003L25.0772 20.0617L29.7791 32.6003M20.3752 32.6003H29.7791M32.6003 40.1235L29.7791 32.6003" stroke="#959595" stroke-width="4" stroke-linecap="round" stroke-linejoin="round"/>
</svg>
